<svg width="26.000000" height="26.000000" viewBox="0 0 26 26" fill="none" xmlns="http://www.w3.org/2000/svg" xmlns:xlink="http://www.w3.org/1999/xlink">
	<desc>
			Created with Pixso.
	</desc>
	<defs>
		<clipPath id="clip1_221">
			<rect id="IMAGE" width="26.000000" height="26.000000" fill="white" fill-opacity="0"/>
		</clipPath>
	</defs>
	<g clip-path="url(#clip1_221)">
		<path id="Vector" d="M24.94 0.3C24.86 0.21 24.76 0.13 24.64 0.08C24.52 0.03 24.4 0 24.27 0C24.14 -0.01 24.02 0.01 23.9 0.06C23.78 0.11 23.67 0.18 23.58 0.27L22.86 0.99C22.77 1.08 22.72 1.2 22.72 1.32C22.72 1.45 22.77 1.57 22.86 1.65L23.52 2.32C23.57 2.36 23.62 2.4 23.68 2.42C23.73 2.44 23.79 2.45 23.86 2.45C23.92 2.45 23.98 2.44 24.04 2.42C24.09 2.4 24.14 2.36 24.19 2.32L24.89 1.61C25.25 1.26 25.29 0.68 24.94 0.3ZM21.39 2.46L10.82 13.01C10.75 13.08 10.71 13.16 10.68 13.25L10.19 14.7C10.18 14.74 10.18 14.78 10.19 14.82C10.2 14.86 10.22 14.9 10.25 14.93C10.28 14.96 10.32 14.98 10.36 14.99C10.4 15 10.44 15 10.48 14.99L11.93 14.5C12.02 14.47 12.1 14.43 12.16 14.36L22.72 3.78C22.82 3.69 22.87 3.55 22.87 3.41C22.87 3.27 22.82 3.14 22.72 3.04L22.14 2.46C22.04 2.36 21.91 2.3 21.77 2.3C21.63 2.3 21.49 2.36 21.39 2.46Z" fill="#FF774C" fill-opacity="1.000000" fill-rule="nonzero"/>
		<path id="Vector" d="M21.14 8.29L13.52 15.92C13.23 16.21 12.87 16.43 12.47 16.56L10.85 17.1C10.47 17.21 10.06 17.21 9.67 17.11C9.29 17.01 8.93 16.81 8.65 16.53C8.37 16.24 8.17 15.89 8.07 15.51C7.97 15.12 7.97 14.71 8.08 14.33L8.62 12.71C8.74 12.31 8.96 11.95 9.26 11.66L16.89 4.04C16.96 3.97 17.01 3.88 17.03 3.78C17.05 3.68 17.04 3.58 17 3.49C16.96 3.4 16.9 3.32 16.82 3.27C16.73 3.21 16.64 3.18 16.54 3.18L3.5 3.18C2.57 3.18 1.68 3.55 1.02 4.21C0.36 4.86 0 5.75 0 6.68L0 21.68C0 22.61 0.36 23.5 1.02 24.16C1.68 24.81 2.57 25.18 3.5 25.18L18.5 25.18C19.42 25.18 20.31 24.81 20.97 24.16C21.63 23.5 22 22.61 22 21.68L22 8.64C22 8.54 21.97 8.44 21.91 8.36C21.86 8.28 21.78 8.22 21.69 8.18C21.59 8.14 21.49 8.13 21.4 8.15C21.3 8.17 21.21 8.22 21.14 8.29Z" fill="#FF774C" fill-opacity="1.000000" fill-rule="nonzero"/>
	</g>
</svg>
